<svg xmlns="http://www.w3.org/2000/svg" width="57.31" height="92.707" viewBox="0 0 57.31 92.707"><path d="M112.561,61.37H55.251V59.125h57.31Zm0-31.167L96.15,37.622,83.669,23.145,71.885,37.616l-16.634-7.4v26.4h57.31ZM57.5,33.67l15.046,6.7L83.718,26.64,95.546,40.359l14.771-6.678V54.372H57.5Zm30.631,4.652L83.87,33.464l-4.178,4.861,4.176,9.518Zm-4.24-1.434,1.6,1.831-1.6,3.582-1.573-3.585ZM65.564,82.729,62.352,64.145H58.768L55.556,82.729H58.37l.611-4.221h3.106l.611,4.221Zm-5.071-14.6h.079l1.142,7.832H59.352Zm12.638,14.6H76.1L73.53,74.26a4.34,4.34,0,0,0,1.991-4.089V68.844c0-3.053-1.646-4.7-4.673-4.7H66.787V82.729H69.6V74.871h1.3ZM69.6,66.747h1.142c1.354,0,1.964.717,1.964,2.283v.956c0,1.566-.611,2.283-1.964,2.283H69.6Zm12.24-2.867c-2.814,0-4.54,1.779-4.54,4.7v9.716c0,2.921,1.726,4.7,4.54,4.7s4.539-1.779,4.539-4.7V68.579C86.381,65.658,84.655,63.88,81.841,63.88Zm0,2.6c1.115,0,1.725.744,1.725,2.123v9.664c0,1.38-.611,2.123-1.725,2.123s-1.725-.743-1.725-2.123V68.6C80.116,67.225,80.726,66.481,81.841,66.481Zm18.665,16.247V64.145h-3.8l-2.177,9.982h-.053l-2.2-9.982h-3.69V82.729H91.24v-12.9h.053L93.63,80.074H95.3l2.336-10.248h.054v12.9Zm11.5,0L108.79,64.145h-3.584l-3.212,18.583h2.813l.611-4.221h3.106l.611,4.221Zm-5.071-14.6h.079l1.142,7.832H105.79ZM64.136,98.561,69.9,87.435H65.457L59.574,99.121h-.081V87.435H55.251v28.016h4.242v-8.645l1.841-3.6L65.5,115.451H70.02Zm12.646,16.89V87.435H72.539v28.016Zm18.37,0V87.435h-4v16.689h-.08l-5-16.689H81.344v28.016h4V96.88h.08l5.563,18.571Zm10.725-28.417c-4.2,0-6.6,2.481-6.6,6.724v15.369c0,4.243,2.4,6.725,6.6,6.725,4.243,0,6.684-2.482,6.684-6.725V99.962H106v3.922h2.4v4.8c0,2.241-.8,3.242-2.442,3.242s-2.442-1-2.442-2.842V93.8c0-1.841.841-2.842,2.481-2.842s2.482,1,2.482,3.242v1.681l4.082-.2V93.758C112.561,89.516,110.119,87.034,105.877,87.034Z" transform="translate(-55.251 -23.145)" fill="#fff"/></svg>